<svg width="0" height="0" class="hidden"><symbol fill="none" xmlns="http://www.w3.org/2000/svg" viewBox="0 0 61 66" id="airbnb"><g clip-path="url(#clip0)"><path d="M56.42 52.748c-.452 3.361-2.715 6.27-5.882 7.563-1.552.646-3.232.84-4.913.646-1.616-.194-3.232-.71-4.913-1.68-2.327-1.294-4.654-3.297-7.369-6.27 4.267-5.236 6.852-10.02 7.822-14.286.452-2.004.517-3.814.323-5.495-.258-1.616-.84-3.103-1.745-4.395-2.004-2.909-5.365-4.59-9.115-4.59-3.749 0-7.11 1.746-9.114 4.59-.905 1.292-1.486 2.78-1.745 4.395a13.428 13.428 0 00.323 5.496c.97 4.265 3.62 9.113 7.822 14.348-2.65 2.975-5.042 4.978-7.37 6.272-1.68.97-3.296 1.487-4.912 1.68a10.34 10.34 0 01-4.913-.646c-3.168-1.293-5.43-4.203-5.882-7.564-.194-1.615-.065-3.231.582-5.041.193-.647.517-1.293.84-2.069.452-1.034.97-2.133 1.486-3.233l.065-.128c4.46-9.632 9.244-19.457 14.221-29.024l.194-.388c.517-.969 1.034-2.003 1.552-2.973.517-1.034 1.098-2.004 1.81-2.845 1.357-1.552 3.167-2.392 5.17-2.392 2.004 0 3.814.84 5.172 2.392.711.84 1.293 1.81 1.81 2.845.517.97 1.034 2.004 1.551 2.973l.195.388A856.885 856.885 0 0153.64 42.406v.063c.517 1.035.97 2.2 1.486 3.233.324.776.647 1.422.84 2.069.518 1.68.712 3.297.453 4.977zm-25.792-3.039c-3.49-4.395-5.753-8.532-6.528-12.022-.323-1.487-.388-2.78-.194-3.944a6.289 6.289 0 011.034-2.716c1.228-1.743 3.296-2.844 5.688-2.844s4.525 1.035 5.689 2.844a6.28 6.28 0 011.034 2.716c.194 1.164.129 2.521-.194 3.944-.775 3.426-3.038 7.563-6.528 12.022zm29.154-3.36c-.323-.777-.647-1.617-.97-2.328-.517-1.163-1.034-2.262-1.487-3.297l-.065-.064a672.747 672.747 0 00-14.285-29.217l-.194-.389a129.3 129.3 0 01-1.551-3.038c-.647-1.164-1.293-2.39-2.327-3.555-2.07-2.586-5.042-4.008-8.21-4.008-3.232 0-6.14 1.422-8.274 3.879-.97 1.163-1.68 2.391-2.327 3.556a133.224 133.224 0 01-1.552 3.038l-.194.387C13.37 21.009 8.521 30.835 4.061 40.53l-.065.13c-.452 1.033-.97 2.131-1.487 3.296a42.838 42.838 0 00-.969 2.327C.7 48.675.441 50.938.764 53.264a13.738 13.738 0 008.404 10.731c1.68.712 3.425 1.035 5.236 1.035.517 0 1.163-.065 1.68-.13 2.133-.259 4.33-.969 6.464-2.197 2.65-1.487 5.172-3.62 8.016-6.723 2.843 3.103 5.43 5.236 8.015 6.723 2.133 1.228 4.331 1.938 6.464 2.197.517.065 1.164.13 1.68.13 1.81 0 3.62-.323 5.237-1.035 4.524-1.809 7.692-5.946 8.403-10.73.517-2.263.258-4.524-.582-6.917z" fill="#E0565B"/></g><defs><clipPath id="clip0"><path fill="#fff" transform="translate(.63 .453)" d="M0 0h60v64.688H0z"/></clipPath></defs></symbol><symbol fill="none" xmlns="http://www.w3.org/2000/svg" viewBox="0 0 61 72" id="android"><g clip-path="url(#clip0)"><path d="M18.89.725a2.07 2.07 0 00-.983.255 2.077 2.077 0 00-.803 2.806l2.232 4.03c-5.378 3.327-8.941 9.01-8.941 15.497v1.205a5.609 5.609 0 00-4.247-1.939A5.634 5.634 0 00.517 28.21v17.346a5.634 5.634 0 005.63 5.63 5.61 5.61 0 004.248-1.938v2.43c0 3.276 2.68 5.956 5.956 5.956h1.512v7.716a5.634 5.634 0 005.63 5.631 5.634 5.634 0 005.631-5.63v-7.717h2.615v7.716a5.634 5.634 0 005.631 5.631 5.634 5.634 0 005.631-5.63v-7.717h1.512c3.275 0 5.956-2.68 5.956-5.956v-2.43a5.609 5.609 0 004.247 1.939 5.634 5.634 0 005.63-5.631V28.21a5.634 5.634 0 00-5.63-5.63c-1.696 0-3.215.75-4.247 1.938v-1.205c0-6.486-3.572-12.163-8.947-15.49l2.238-4.037A2.077 2.077 0 0042.957.98a2.068 2.068 0 00-.983-.255 2.065 2.065 0 00-1.823 1.058l-2.34 4.228a21.289 21.289 0 00-7.379-1.307c-2.597 0-5.092.458-7.379 1.3l-2.34-4.22A2.066 2.066 0 0018.89.723z" fill="#fff"/><path d="M6.148 24.046a4.14 4.14 0 00-4.164 4.164v17.346a4.14 4.14 0 004.164 4.164 4.14 4.14 0 004.164-4.164V28.21a4.14 4.14 0 00-4.164-4.164zm48.568 0a4.14 4.14 0 00-4.164 4.164v17.346a4.14 4.14 0 004.164 4.164 4.14 4.14 0 004.164-4.164V28.21a4.14 4.14 0 00-4.164-4.164zM23.494 43.84a4.14 4.14 0 00-4.165 4.165V65.35a4.14 4.14 0 004.165 4.165 4.14 4.14 0 004.164-4.165V48.005a4.14 4.14 0 00-4.164-4.165zm13.877 0a4.14 4.14 0 00-4.165 4.165V65.35a4.14 4.14 0 004.164 4.165 4.14 4.14 0 004.165-4.165V48.005a4.14 4.14 0 00-4.164-4.165z" fill="#A4C639"/><path d="M18.902 2.191a.579.579 0 00-.28.077.575.575 0 00-.23.803l2.933 5.3c-5.643 2.936-9.456 8.517-9.463 14.922h37.14c-.008-6.405-3.82-11.986-9.464-14.922l2.934-5.3a.575.575 0 00-.23-.803.581.581 0 00-.803.23l-2.972 5.356a19.798 19.798 0 00-8.035-1.683c-2.878 0-5.604.605-8.035 1.683l-2.972-5.356a.583.583 0 00-.523-.307zm-7.04 22.569v26.918a4.479 4.479 0 004.49 4.49h28.16a4.48 4.48 0 004.49-4.49V24.76h-37.14z" fill="#A4C639"/><path d="M21.86 13.396a1.56 1.56 0 00-1.549 1.55c0 .847.702 1.55 1.55 1.55a1.56 1.56 0 001.55-1.55 1.56 1.56 0 00-1.55-1.55zm17.143 0a1.56 1.56 0 00-1.55 1.55c0 .847.702 1.55 1.55 1.55a1.56 1.56 0 001.55-1.55 1.56 1.56 0 00-1.55-1.55z" fill="#fff"/></g><defs><clipPath id="clip0"><path fill="#fff" transform="translate(.517 .523)" d="M0 0h60v70.547H0z"/></clipPath></defs></symbol><svg width="0" height="0" class="hidden"><symbol fill="none" xmlns="http://www.w3.org/2000/svg" viewBox="0 0 61 62" id="apiary"><g clip-path="url(#clip0)"><path opacity=".5" d="M30.445 9.086v17.245l14.964-8.64V.445L30.445 9.086z" fill="#13A049"/><path opacity=".5" d="M30.445 9.086L15.48.446v17.28l14.964 8.641V9.086z" fill="#A2CC39"/><path opacity=".9" d="M45.409.445L30.445 9.086 15.48.446.517 9.085l29.928 17.281 29.91-17.281L45.41.446z" fill="url(#paint0_linear)"/><path d="M30.445 26.367L.517 9.086v17.281l14.964 8.641v17.264l14.964 8.64 14.964-8.64V35.008l14.946-8.64V9.085l-29.91 17.281z" fill="url(#paint1_linear)"/><path d="M30.445 26.367v34.545l14.964-8.64V35.008l14.946-8.64V9.085l-29.91 17.281z" fill="url(#paint2_linear)"/><path opacity=".05" d="M30.445 43.63v17.282l14.964-8.64-14.964-8.641z" fill="#231F20"/><path opacity=".1" d="M30.445 60.948V43.667l-14.964 8.64 14.964 8.641z" fill="#231F20"/><path opacity=".05" d="M15.481 17.727L.517 26.367l14.964 8.641 14.964-8.64-14.964-8.641zm29.928 0l-14.964 8.64 14.964 8.641 14.946-8.64-14.946-8.641z" fill="#231F20"/></g><defs><linearGradient id="paint0_linear" x1="60.362" y1="13.404" x2=".517" y2="13.404" gradientUnits="userSpaceOnUse"><stop stop-color="#37BDA6"/><stop offset="1" stop-color="#8AD3B8"/></linearGradient><linearGradient id="paint1_linear" x1="60.362" y1="34.998" x2=".517" y2="34.998" gradientUnits="userSpaceOnUse"><stop offset=".5" stop-color="#4BB6AD"/><stop offset="1" stop-color="#78BBC1"/></linearGradient><linearGradient id="paint2_linear" x1="30.439" y1="34.998" x2="60.362" y2="34.998" gradientUnits="userSpaceOnUse"><stop stop-color="#4379A7"/><stop offset="1" stop-color="#7CC9B8"/></linearGradient><clipPath id="clip0"><path fill="#fff" transform="translate(.517 .445)" d="M0 0h60v60.703H0z"/></clipPath></defs></symbol></svg><symbol fill="none" xmlns="http://www.w3.org/2000/svg" viewBox="0 0 61 61" id="appstore"><g clip-path="url(#clip0)"><path d="M13.657.797h33.72c7.257 0 13.14 5.883 13.14 13.14v33.72c0 7.257-5.883 13.14-13.14 13.14h-33.72c-7.257 0-13.14-5.883-13.14-13.14v-33.72C.517 6.68 6.4.797 13.657.797z" fill="url(#paint0_linear)"/><path d="M19.745 44.346l.006.002L17.7 47.9a2.712 2.712 0 11-4.697-2.712l1.511-2.617.145-.252c.259-.372.898-1.014 2.177-.894 0 0 3.008.327 3.226 1.89 0 0 .03.515-.317 1.03zm29.097-9.075h-6.398c-.435-.03-.625-.185-.7-.276l-.005-.008-6.848-11.86-.009.005-.41-.588c-.673-1.03-1.742 1.603-1.742 1.603-1.276 2.933.181 6.268.689 7.276l9.511 16.474a2.712 2.712 0 104.697-2.712l-2.378-4.119c-.046-.1-.127-.37.361-.372h3.232a2.712 2.712 0 000-5.423zm-12.426 3.686s.342 1.737-.98 1.737H11.789a2.712 2.712 0 010-5.423h6.08c.982-.057 1.214-.624 1.214-.624l.006.003 7.936-13.746h-.003a.607.607 0 00.004-.556l-2.621-4.54a2.711 2.711 0 114.697-2.712l1.215 2.106L31.53 13.1a2.712 2.712 0 014.697 2.712L25.183 34.939c-.048.117-.063.3.296.332h6.601l.002.064s3.815.06 4.334 3.622z" fill="#fff"/></g><defs><linearGradient id="paint0_linear" x1="30.517" y1=".797" x2="30.517" y2="60.797" gradientUnits="userSpaceOnUse"><stop stop-color="#17C9FB"/><stop offset="1" stop-color="#1A74E8"/></linearGradient><clipPath id="clip0"><path fill="#fff" transform="translate(.517 .797)" d="M0 0h60v60H0z"/></clipPath></defs></symbol><symbol fill="none" xmlns="http://www.w3.org/2000/svg" viewBox="0 0 73 61" id="basecamp"><g clip-path="url(#clip0)"><path d="M36.658.797C17.323.797 2.174 25.397.74 46.174c6.068 10.53 20.7 14.49 35.917 14.49 15.217 0 29.85-3.96 35.914-14.49C71.14 25.397 55.992.797 36.658.797" fill="#B6DEFF"/><path d="M67.52 41.225s-4.27-9.233-8.611-14.62C54.565 21.218 49.26 15.35 46.124 15.35c-3.135 0-11.897 15.514-15.917 15.514-4.021 0-6.11-7.033-11.054-7.033-4.945 0-12.802 16.96-12.802 16.96l-.533 2.876s2.73 12.102 31.286 12.102c28.557 0 30.84-11.904 30.84-11.904l-.424-2.64" fill="#6C6"/><path d="M30.654 37.486c-4.435 0-6.708-4.376-7.94-7.077-1.11-2.434-1.301-6.275-4.446-6.383.309-.122.606-.195.885-.195 4.943 0 7.033 7.033 11.054 7.033 4.02 0 12.783-15.515 15.917-15.515.591 0 1.256.209 1.978.58-.534-.071-1.218-.022-1.746.507-1.013 1.014-10.211 21.05-15.702 21.05z" fill="#17AD49"/></g><defs><clipPath id="clip0"><path fill="#fff" transform="translate(.517 .797)" d="M0 0h72.113v60H0z"/></clipPath></defs></symbol><symbol fill="none" xmlns="http://www.w3.org/2000/svg" viewBox="0 0 151 61" id="ibm"><g clip-path="url(#clip0)"><path d="M.63.797v4.101h29.168V.797H.63zm33.301 0v4.101h41.567S71.252.797 65.628.797H33.931zm49.721 0v4.101h25.147L107.307.797H83.652zm43.177 0l-1.493 4.101h24.919V.797h-23.426zM.629 8.772v4.102H29.8V8.772H.628zm33.302.006v4.096h46.39s-.541-3.157-1.487-4.096H33.931zm49.721 0v4.096h27.904l-1.381-4.096H83.652zm40.191 0l-1.381 4.096h27.793V8.778h-26.412zM9.012 16.748v4.106h12.632v-4.106H9.012zm33.301 0v4.106h12.633v-4.106H42.313zm24.92 0v4.106h12.632s.802-2.168.802-4.106H67.232zm24.801 0v4.106h22.396l-1.492-4.106H92.034zm29.058 0l-1.499 4.107h22.508v-4.107h-21.009zM9.012 24.73v4.1h12.632v-4.1H9.012zm33.301 0v4.1H74.58s2.699-2.104 3.559-4.101H42.313zm49.721 0v4.1h12.633v-2.283l.802 2.283h23.139l.861-2.283v2.283h12.632v-4.1h-23.713l-1.259 3.473-1.264-3.473h-23.83zM9.012 32.705v4.1h12.632v-4.1H9.012zm33.301 0v4.1h35.825c-.86-1.99-3.56-4.1-3.56-4.1H42.314zm49.721 0v4.1h12.633v-4.1H92.034zm14.927 0l1.528 4.1h17.35l1.452-4.1h-20.33zm22.508 0v4.1h12.632v-4.1h-12.632zM9.012 40.68v4.101h12.632v-4.1H9.012zm33.301 0v4.101h12.633v-4.1H42.313zm24.92 0v4.101h13.434c0-1.935-.802-4.1-.802-4.1H67.232zm24.801 0v4.101h12.633v-4.1H92.034zm17.796 0l1.48 4.101h11.632l1.492-4.1H109.83zm19.639 0v4.101h12.632v-4.1h-12.632zM.858 48.656v4.107h29.169v-4.107H.857zm33.073 0v4.107h44.903c.945-.94 1.487-4.107 1.487-4.107h-46.39zm49.95 0v4.107h20.786v-4.107H83.88zm28.823 0l1.522 4.107h5.918l1.428-4.107h-8.868zm16.765 0v4.107h21.014v-4.107h-21.014zM.858 56.637v4.101h29.169v-4.1H.857zm33.073 0v4.095h31.698c5.623 0 9.869-4.095 9.869-4.095H33.93zm49.95 0v4.101h20.786v-4.1H83.88zm31.709 0l1.463 4.09.252.005 1.486-4.095h-3.201zm13.879 0v4.101h21.014v-4.1h-21.014z" fill="#1F70C1"/></g><defs><clipPath id="clip0"><path fill="#fff" transform="translate(.63 .797)" d="M0 0h149.854v60H0z"/></clipPath></defs></symbol></svg>