<svg width="0" height="0" class="hidden"><symbol fill="none" xmlns="http://www.w3.org/2000/svg" viewBox="0 0 46 47" id="bx-map"><path d="M23 26.904c4.228 0 7.667-3.439 7.667-7.667S27.228 11.57 23 11.57s-7.667 3.439-7.667 7.667 3.439 7.667 7.667 7.667zm0-11.5a3.837 3.837 0 013.833 3.833A3.837 3.837 0 0123 23.07a3.837 3.837 0 01-3.833-3.833A3.837 3.837 0 0123 15.404z" fill="#000"/><path d="M21.889 41.88a1.912 1.912 0 002.223 0c.583-.411 14.277-10.3 14.222-22.643 0-8.454-6.88-15.333-15.334-15.333S7.667 10.783 7.667 19.228C7.61 31.58 21.306 41.468 21.889 41.88zM23 7.738c6.342 0 11.5 5.158 11.5 11.51.04 8.506-8.41 16.144-11.5 18.649-3.088-2.507-11.54-10.147-11.5-18.659 0-6.342 5.158-11.5 11.5-11.5z" fill="#fff"/></symbol><symbol fill="none" xmlns="http://www.w3.org/2000/svg" viewBox="0 0 42 42" id="facebook"><path d="M36.21 4.553H6.751a1.28 1.28 0 00-1.28 1.281v29.46c0 .708.572 1.28 1.28 1.28h29.46a1.28 1.28 0 001.28-1.28V5.833a1.28 1.28 0 00-1.28-1.28zM32.512 13.9h-2.558c-2.005 0-2.393.953-2.393 2.354v3.086h4.787l-.625 4.831h-4.162v12.404h-4.992v-12.4h-4.174V19.34h4.174v-3.562c0-4.135 2.526-6.389 6.216-6.389 1.77 0 3.287.132 3.73.192v4.32h-.003z" fill="#fff"/></symbol><symbol fill="none" xmlns="http://www.w3.org/2000/svg" viewBox="0 0 42 42" id="linkedin"><path d="M36.198 4.553H6.74a1.28 1.28 0 00-1.28 1.281v29.46c0 .708.572 1.28 1.28 1.28H36.2a1.28 1.28 0 001.28-1.28V5.833a1.28 1.28 0 00-1.28-1.28zM14.956 31.84h-4.75V16.557h4.75v15.282zm-2.373-17.371a2.755 2.755 0 112.753-2.754 2.759 2.759 0 01-2.753 2.754zm20.16 17.37h-4.746v-7.432c0-1.773-.032-4.05-2.47-4.05-2.47 0-2.85 1.929-2.85 3.922v7.56h-4.743V16.558h4.555v2.09h.064c.633-1.201 2.182-2.47 4.495-2.47 4.811 0 5.696 3.166 5.696 7.28v8.382z" fill="#fff"/></symbol><symbol fill="none" xmlns="http://www.w3.org/2000/svg" viewBox="0 0 35 36" id="phone"><path d="M23.333 2.029H11.667a4.37 4.37 0 00-4.375 4.375v23.333a4.37 4.37 0 004.375 4.375h11.666a4.37 4.37 0 004.375-4.375V6.404a4.37 4.37 0 00-4.375-4.375zm-2.916 29.166h-5.834v-1.458h5.834v1.459zm4.74-4.375H9.843V6.404h15.312V26.82z" fill="#fff"/></symbol><symbol fill="none" xmlns="http://www.w3.org/2000/svg" viewBox="0 0 41 42" id="twitter"><path d="M37.145 10.249a13.69 13.69 0 01-3.93 1.056 6.809 6.809 0 003.001-3.762 13.474 13.474 0 01-4.33 1.65 6.808 6.808 0 00-4.988-2.158 6.823 6.823 0 00-6.824 6.828c0 .529.064 1.057.168 1.565A19.396 19.396 0 016.169 8.283a6.777 6.777 0 00-.929 3.447 6.83 6.83 0 003.042 5.687 6.884 6.884 0 01-3.086-.868v.084a6.827 6.827 0 005.472 6.7 7.22 7.22 0 01-1.797.232 9.07 9.07 0 01-1.29-.104 6.837 6.837 0 006.38 4.735 13.679 13.679 0 01-8.473 2.918c-.572 0-1.1-.02-1.649-.084a19.327 19.327 0 0010.483 3.062c12.552 0 19.42-10.398 19.42-19.424 0-.297 0-.593-.02-.889a14.703 14.703 0 003.423-3.53z" fill="#fff"/></symbol></svg>